# xmcd CD database file
#
# Track frame offsets:
#	150
#	23448
#	46447
#	64568
#	77485
#	108293
#	135175
#	155582
#	191652
#	203200
#	231212
#	256868
#	273620
#	285875
#
# Disc length: 4051 seconds
#
# Revision: 1
# Processed by: cddbd v1.5.2PL0 Copyright (c) Steve Scherf et al.
# Submitted via: CDex 1.40Release
#
DISCID=b00fd10e
DTITLE=Paolo Fresu Quintet - Rosso, verde, giallo e blu
DYEAR=2007
DGENRE=Jazz
TTITLE0=Rosso, verde, giallo e blu
TTITLE1=Hip Hip!
TTITLE2=Variazione 13
TTITLE3=Bi-sogni aerei
TTITLE4=Valzer del ritorno
TTITLE5=Night on Blue Note
TTITLE6=Almeno tu nell'Universo
TTITLE7=Rock
TTITLE8=Khula Mntwana
TTITLE9=Sull'estremo confine del mare
TTITLE10=Shoah 27.01.2005
TTITLE11=Echauffement corporei
TTITLE12=Khula Mntwana
TTITLE13=Ulixes
EXTD=YEAR: 2007 ID3G: 8
EXTT0=
EXTT1=
EXTT2=
EXTT3=
EXTT4=
EXTT5=
EXTT6=
EXTT7=
EXTT8=
EXTT9=
EXTT10=
EXTT11=
EXTT12=
EXTT13=
PLAYORDER=
